HIERARCHY
ROOT Hips
{
	OFFSET 0.00000 0.00000 0.00000
	CHANNELS 6 Xposition Yposition Zposition Zrotation Yrotation Xrotation 
	JOINT LHipJoint
	{
		OFFSET 0 0 0
		CHANNELS 3 Zrotation Yrotation Xrotation
		JOINT LeftHip
		{
			OFFSET 1.54859 -1.61379 0.86856
			CHANNELS 3 Zrotation Yrotation Xrotation
			JOINT LeftKnee
			{
				OFFSET 2.25087 -6.18423 0.00000
				CHANNELS 3 Zrotation Yrotation Xrotation
				JOINT LeftAnkle
				{
					OFFSET 2.40328 -6.60297 0.00000
					CHANNELS 3 Zrotation Yrotation Xrotation
					JOINT LeftToe
					{
						OFFSET 0.17435 -0.47901 2.02453
						CHANNELS 3 Zrotation Yrotation Xrotation
						End Site
						{
							OFFSET 0.00000 -0.00000 1.04844
						}
					}
				}
			}
		}
	}
	JOINT RHipJoint
	{
		OFFSET 0 0 0
		CHANNELS 3 Zrotation Yrotation Xrotation
		JOINT RightHip
		{
			OFFSET -1.54669 -1.61379 0.86856
			CHANNELS 3 Zrotation Yrotation Xrotation
			JOINT RightKnee
			{
				OFFSET -2.28132 -6.26789 0.00000
				CHANNELS 3 Zrotation Yrotation Xrotation
				JOINT RightAnkle
				{
					OFFSET -2.51636 -6.91365 0.00000
					CHANNELS 3 Zrotation Yrotation Xrotation
					JOINT RightToe
					{
						OFFSET -0.15124 -0.41552 2.21090
						CHANNELS 3 Zrotation Yrotation Xrotation
						End Site
						{
							OFFSET -0.00000 -0.00000 1.13399
						}
					}
				}
			}
		}
	}
	JOINT lowerback
	{
		OFFSET 0 0 0
		CHANNELS 3 Zrotation Yrotation Xrotation
		JOINT Chest
		{
			OFFSET -0.04287 2.26161 -0.25690
			CHANNELS 3 Zrotation Yrotation Xrotation
			JOINT Chest2
			{
				OFFSET 0.02248 2.28395 -0.10140
				CHANNELS 3 Zrotation Yrotation Xrotation
				JOINT lowerneck
				{
					OFFSET 0 0 0
					CHANNELS 3 Zrotation Yrotation Xrotation
					JOINT Neck
					{
						OFFSET -0.11644 1.38496 0.11345
						CHANNELS 3 Zrotation Yrotation Xrotation
						JOINT Head
						{
							OFFSET 0.29383 1.36600 0.06642
							CHANNELS 3 Zrotation Yrotation Xrotation
							End Site
							{
								OFFSET 0.11075 1.41395 -0.00294
							}
						}
					}
				}
				JOINT LeftCollar
				{
					OFFSET 0 0 0
					CHANNELS 3 Zrotation Yrotation Xrotation
					JOINT LeftShoulder
					{
						OFFSET 3.51628 0.59542 -0.30346
CHANNELS 3 Zrotation Xrotation Yrotation
						JOINT LeftElbow
						{
OFFSET 0 -4.764050 0.000000
CHANNELS 3 Zrotation Xrotation Yrotation
							JOINT LeftWrist
							{
OFFSET 0 -3.137590 -0.000000
CHANNELS 3 Zrotation Xrotation Yrotation
								JOINT lhand
								{
									OFFSET 0 0 0
CHANNELS 3 Zrotation Xrotation Yrotation
									JOINT LFingers
									{
OFFSET 0 -0.732260 -0.000000
CHANNELS 3 Zrotation Xrotation Yrotation
										End Site
										{
OFFSET 0 -0.590370 -0.000000
										}
									}
								}
								JOINT LThumb
								{
OFFSET 0 0.000000 0.000000
CHANNELS 3 Zrotation Xrotation Yrotation
									End Site
									{
OFFSET 0 -0.599380 0.599380
									}
								}
							}
						}
					}
				}
				JOINT RightCollar
				{
					OFFSET 0 0 0
					CHANNELS 3 Zrotation Yrotation Xrotation
					JOINT RightShoulder
					{
						OFFSET -3.30990 0.84213 -0.36430
CHANNELS 3 Zrotation Xrotation Yrotation
						JOINT RightElbow
						{
OFFSET 0 -5.101610 -0.000000
CHANNELS 3 Zrotation Xrotation Yrotation
							JOINT RightWrist
							{
OFFSET 0 -3.232670 -0.000000
CHANNELS 3 Zrotation Xrotation Yrotation
								JOINT rhand
								{
									OFFSET 0 0 0
CHANNELS 3 Zrotation Xrotation Yrotation
									JOINT RFingers
									{
OFFSET 0 -0.702000 -0.000000
CHANNELS 3 Zrotation Xrotation Yrotation
										End Site
										{
OFFSET 0 -0.565970 -0.000000
										}
									}
								}
								JOINT RThumb
								{
OFFSET 0 0.000000 0.000000
CHANNELS 3 Zrotation Xrotation Yrotation
									End Site
									{
OFFSET 0 -0.574610 0.574610
									}
								}
							}
						}
					}
				}
			}
		}
	}
}
MOTION
Frames: 11
Frame Time: 0.008333333333333333
24.907053 13.150824 1.316021 182.593284 -45.894001 -170.192222 0.000000 0.000000 0.000000 -14.769014 15.387738 -75.447322 20.449263 19.995007 91.313684 1.164270 3.284084 -21.808292 0.027806 -1.048061 -2.881402 0.000000 0.000000 0.000000 -2.228992 -16.518828 -33.662899 -9.917474 -17.363033 59.211980 -2.829212 -3.485903 -33.164412 -8.682105 16.598701 -54.983981 6.261865 1.824024 29.283661 0.591433 1.771441 12.718133 -3.422199 0.230903 -1.487575 -9.086966 8.530446 -12.818342 -1.161792 10.373481 -24.476520 1.046905 5.000161 -5.971215 0.000000 0.000000 0.000000 0.870664 1.061147 -28.142615 29.497381 -40.453752 11.083836 12.889121 -22.283567 -18.232660 0.000000 0.000000 0.000000 -7.125000 0.000000 0.000000 -14.662826 48.093694 1.141694 0.000000 0.000000 0.000000 -2.455538 -38.857321 41.651650 -30.085890 -40.941667 -11.475177 -33.437222 -27.862823 -28.968170 0.000000 0.000000 0.000000 7.125000 0.000000 0.000000 -1.543681 -3.568141 -1.636618
24.823914 13.124223 1.314753 182.717830 -45.858686 -170.253661 0.000000 0.000000 0.000000 -14.290508 15.384104 -75.833573 20.371267 19.996497 91.085616 1.165810 3.254392 -21.806371 0.017025 -0.818140 -2.248733 0.000000 0.000000 0.000000 -2.457972 -16.699665 -33.322310 -9.842173 -17.319864 58.959191 -2.827001 -3.495753 -33.156218 -8.698891 16.609968 -55.042729 6.224102 1.868283 29.324341 0.521077 1.804066 12.760395 -3.487925 0.246010 -1.453643 -9.018787 8.487704 -12.927934 -1.188916 10.332071 -24.294359 1.036072 4.980050 -5.886560 0.000000 0.000000 0.000000 1.494680 1.380906 -28.520864 30.024850 -40.911429 11.427058 12.805872 -22.147623 -18.107066 0.000000 0.000000 0.000000 -7.125000 0.000000 0.000000 -14.695680 47.958488 1.095473 0.000000 0.000000 0.000000 -2.120090 -39.267367 42.339505 -31.279563 -41.949731 -12.261795 -33.331028 -28.240654 -29.193935 0.000000 0.000000 0.000000 7.125000 0.000000 0.000000 -1.436592 -3.783122 -1.528821
24.733889 13.114938 1.312422 182.839716 -45.828010 -170.328102 0.000000 0.000000 0.000000 -13.862146 15.418707 -76.062621 20.261978 19.997929 90.766094 1.171250 3.207887 -21.829685 0.009908 -0.561033 -1.541955 0.000000 0.000000 0.000000 -2.666119 -16.921842 -32.886750 -9.728221 -17.253440 58.575085 -2.832768 -3.355788 -33.131064 -8.699218 16.610214 -55.043915 6.134037 1.937039 29.331335 0.479562 1.852943 12.810459 -3.495942 0.266584 -1.398671 -9.088279 8.414941 -13.041191 -1.116193 10.281885 -24.072632 1.078487 4.964017 -5.802466 0.000000 0.000000 0.000000 2.088734 1.758877 -28.952007 30.621317 -41.411981 11.821431 12.914220 -21.868838 -17.878876 0.000000 0.000000 0.000000 -7.125000 0.000000 0.000000 -14.515100 47.749113 1.006021 0.000000 0.000000 0.000000 -1.911083 -39.599078 42.975441 -32.611439 -42.991451 -13.169359 -33.188814 -28.453424 -29.173525 0.000000 0.000000 0.000000 7.125000 0.000000 0.000000 -1.359820 -3.719071 -1.445668
24.643865 13.105654 1.310090 182.961603 -45.797334 -170.402543 0.000000 0.000000 0.000000 -13.433785 15.453309 -76.291669 20.152689 19.999360 90.446571 1.176690 3.161382 -21.852998 0.002791 -0.303926 -0.835177 0.000000 0.000000 0.000000 -2.874267 -17.144019 -32.451190 -9.614269 -17.187016 58.190979 -2.838535 -3.215823 -33.105910 -8.699545 16.610459 -55.045102 6.043972 2.005794 29.338330 0.438047 1.901821 12.860522 -3.503958 0.287157 -1.343699 -9.157771 8.342177 -13.154447 -1.043470 10.231698 -23.850905 1.120902 4.947983 -5.718373 0.000000 0.000000 0.000000 2.682787 2.136848 -29.383150 31.217783 -41.912534 12.215803 13.022568 -21.590054 -17.650687 0.000000 0.000000 0.000000 -7.125000 0.000000 0.000000 -14.334520 47.539738 0.916569 0.000000 0.000000 0.000000 -1.702077 -39.930789 43.611378 -33.943315 -44.033171 -14.076922 -33.046599 -28.666194 -29.153116 0.000000 0.000000 0.000000 7.125000 0.000000 0.000000 -1.283048 -3.655019 -1.362515
24.554045 13.073892 1.303740 183.081446 -45.805516 -170.483114 0.000000 0.000000 0.000000 -12.963397 15.549350 -76.683714 20.104600 19.999702 90.305949 1.167655 3.101084 -21.744751 0.001498 -0.251603 -0.691357 0.000000 0.000000 0.000000 -3.135850 -17.389355 -31.998942 -9.504166 -17.120830 57.817022 -2.842259 -3.038566 -33.055826 -8.696501 16.608423 -55.034470 5.943213 2.083302 29.312629 0.401437 1.966432 12.887052 -3.504278 0.316960 -1.300682 -9.398057 8.227319 -13.109612 -0.790246 10.157536 -23.696815 1.239297 4.929532 -5.697999 0.000000 0.000000 0.000000 3.307457 2.578981 -29.774208 32.027207 -42.554797 12.764180 13.020402 -21.593497 -17.647204 0.000000 0.000000 0.000000 -7.125000 0.000000 0.000000 -14.335053 47.536066 0.914950 0.000000 0.000000 0.000000 -1.583150 -40.149500 44.101245 -35.371401 -45.039302 -15.087677 -32.904555 -28.923237 -29.293113 0.000000 0.000000 0.000000 7.125000 0.000000 0.000000 -1.173513 -3.765133 -1.247894
24.464267 13.037612 1.296582 183.200878 -45.821509 -170.564917 0.000000 0.000000 0.000000 -12.484564 15.657739 -77.108517 20.068812 19.999825 90.201282 1.155712 3.038014 -21.610062 0.001375 -0.240436 -0.660681 0.000000 0.000000 0.000000 -3.408172 -17.639345 -31.543340 -9.394837 -17.054692 57.445105 -2.845572 -2.853814 -33.000731 -8.692779 16.605928 -55.021463 5.840305 2.162569 29.280358 0.365811 2.034206 12.908853 -3.503051 0.348618 -1.260066 -9.672670 8.104001 -13.033003 -0.500745 10.078556 -23.556318 1.372964 4.910594 -5.690433 0.000000 0.000000 0.000000 3.938281 3.034011 -30.157209 32.879430 -43.225541 13.343509 12.996025 -21.653664 -17.688882 0.000000 0.000000 0.000000 -7.125000 0.000000 0.000000 -14.371987 47.573737 0.930984 0.000000 0.000000 0.000000 -1.482328 -40.345500 44.561755 -36.818823 -46.038281 -16.119172 -32.762545 -29.189179 -29.465349 0.000000 0.000000 0.000000 7.125000 0.000000 0.000000 -1.057393 -3.910252 -1.126948
24.373473 13.006439 1.288980 183.341721 -45.865081 -170.664641 0.000000 0.000000 0.000000 -11.999481 15.728588 -77.459587 20.026473 19.999884 90.077472 1.147385 2.964715 -21.501780 0.001982 -0.273265 -0.750904 0.000000 0.000000 0.000000 -3.642923 -17.888431 -31.024743 -9.263113 -16.973187 56.994348 -2.833469 -2.805122 -32.913156 -8.697034 16.608777 -55.036370 5.740934 2.247340 29.258887 0.333612 2.114049 12.918045 -3.503838 0.386413 -1.237611 -9.802578 8.025455 -12.949448 -0.343309 10.024459 -23.446082 1.441494 4.897319 -5.679472 0.000000 0.000000 0.000000 4.598985 3.490689 -30.571708 33.754349 -43.892985 13.945517 13.061842 -21.790274 -17.613754 0.000000 0.000000 0.000000 -7.125000 0.000000 0.000000 -14.286024 47.508398 0.903038 0.000000 0.000000 0.000000 -1.432146 -40.486673 44.928930 -38.323499 -47.021415 -17.209222 -32.713441 -29.557971 -29.767778 0.000000 0.000000 0.000000 7.125000 0.000000 0.000000 -0.966317 -4.222707 -1.034614
24.281076 12.983330 1.280677 183.516371 -45.952202 -170.792663 0.000000 0.000000 0.000000 -11.504532 15.740163 -77.694239 19.973791 19.999843 89.923437 1.144767 2.875263 -21.435193 0.003741 -0.375560 -1.032020 0.000000 0.000000 0.000000 -3.818349 -18.136089 -30.406680 -9.096030 -16.867415 56.419110 -2.797026 -2.971264 -32.774295 -8.713886 16.620066 -55.095350 5.647146 2.340799 29.254470 0.306821 2.212949 12.907329 -3.507806 0.433900 -1.243828 -9.704005 8.017602 -12.854925 -0.394395 10.009652 -23.383626 1.407177 4.892983 -5.663152 0.000000 0.000000 0.000000 5.306867 3.949972 -31.035940 34.665103 -44.555222 14.583335 13.270072 -22.047585 -17.354193 0.000000 0.000000 0.000000 -7.125000 0.000000 0.000000 -14.006012 47.280413 0.805651 0.000000 0.000000 0.000000 -1.461922 -40.541276 45.148735 -39.918576 -47.979533 -18.391725 -32.811032 -30.089159 -30.275775 0.000000 0.000000 0.000000 7.125000 0.000000 0.000000 -0.914781 -4.799377 -0.987454
24.188680 12.960221 1.272374 183.691020 -46.039322 -170.920684 0.000000 0.000000 0.000000 -11.009583 15.751739 -77.928891 19.921110 19.999802 89.769402 1.142150 2.785812 -21.368605 0.005499 -0.477855 -1.313136 0.000000 0.000000 0.000000 -3.993776 -18.383748 -29.788618 -8.928948 -16.761644 55.843871 -2.760582 -3.137406 -32.635435 -8.730737 16.631355 -55.154330 5.553359 2.434259 29.250052 0.280031 2.311849 12.896612 -3.511773 0.481386 -1.250045 -9.605433 8.009749 -12.760401 -0.445481 9.994846 -23.321169 1.372861 4.888648 -5.646833 0.000000 0.000000 0.000000 6.014750 4.409255 -31.500172 35.575857 -45.217458 15.221153 13.478301 -22.304896 -17.094632 0.000000 0.000000 0.000000 -7.125000 0.000000 0.000000 -13.726001 47.052428 0.708265 0.000000 0.000000 0.000000 -1.491698 -40.595880 45.368540 -41.513653 -48.937650 -19.574228 -32.908623 -30.620346 -30.783772 0.000000 0.000000 0.000000 7.125000 0.000000 0.000000 -0.863245 -5.376047 -0.940295
24.091578 12.947871 1.263069 183.942027 -46.161188 -171.147431 0.000000 0.000000 0.000000 -10.564652 15.849698 -78.071645 19.874368 19.999530 89.632759 1.147399 2.669211 -21.358475 0.041002 -1.073193 -2.952872 0.000000 0.000000 0.000000 -4.083937 -18.531024 -28.994895 -8.727774 -16.626718 55.139866 -2.712454 -3.397336 -32.469386 -8.747203 16.642297 -55.211844 5.487570 2.540716 29.266768 0.257290 2.428411 12.909420 -3.532323 0.537357 -1.235321 -9.724671 7.807262 -12.700084 -0.164143 9.789571 -23.170323 1.485166 4.793532 -5.614432 0.000000 0.000000 0.000000 6.786070 4.729861 -31.951138 36.455914 -45.810510 15.853071 13.336059 -22.521330 -17.370883 0.000000 0.000000 0.000000 -7.125000 0.000000 0.000000 -13.951142 47.305841 0.811490 0.000000 0.000000 0.000000 -1.634044 -40.655921 45.376935 -43.191913 -49.811544 -20.859004 -33.193290 -31.177604 -31.229911 0.000000 0.000000 0.000000 7.125000 0.000000 0.000000 -0.923545 -5.942344 -1.015037
23.994192 12.936173 1.253702 184.197661 -46.285161 -171.380160 0.000000 0.000000 0.000000 -10.122752 15.952892 -78.208828 19.827986 19.999244 89.497171 1.153125 2.550964 -21.351768 0.078550 -1.698414 -4.674948 0.000000 0.000000 0.000000 -4.168930 -18.672216 -28.190526 -8.524535 -16.490025 54.428057 -2.663618 -3.662951 -32.301690 -8.763645 16.653217 -55.269270 5.423477 2.647959 29.284765 0.234794 2.546044 12.923654 -3.553878 0.593842 -1.219329 -9.857110 7.592979 -12.641841 0.137342 9.572752 -23.014120 1.606357 4.692914 -5.581056 0.000000 0.000000 0.000000 7.561235 5.042062 -32.401300 37.334110 -46.399369 16.484631 13.172575 -22.735285 -17.679608 0.000000 0.000000 0.000000 -7.125000 0.000000 0.000000 -14.206899 47.588429 0.926873 0.000000 0.000000 0.000000 -1.783212 -40.716291 45.372518 -44.875214 -50.680333 -22.149978 -33.489294 -31.736441 -31.672302 0.000000 0.000000 0.000000 7.125000 0.000000 0.000000 -0.990624 -6.508012 -1.097167
